M48
;DRILL file {kicad (2014-10-31 BZR 5247)-product} date Sonntag, 14. Dezember 2014 16:47:06
;FORMAT={2:4/ absolute / inch / suppress leading zeros}
FMAT,2
INCH,TZ
T1C0.025
T2C0.032
T3C0.039
T4C0.040
%
G90
G05
M72
T1
X53000Y-53800
X54600Y-55200
X55600Y-58400
X56600Y-57000
X56600Y-58800
X57400Y-55200
X57600Y-56800
X57800Y-58800
X59600Y-55200
X61000Y-56600
X62000Y-55200
X62000Y-56800
X62600Y-54800
X62800Y-56800
X62800Y-57400
X62800Y-58000
X63800Y-56800
X64000Y-55600
X64600Y-58000
X66000Y-55000
X68000Y-54000
X74000Y-55600
T2
X63400Y-55500
X63400Y-58500
X65400Y-55500
X65400Y-58500
T3
X70417Y-55817
X70417Y-58183
X71600Y-55327
X71600Y-58673
X72783Y-55817
X72783Y-58183
T4
X52000Y-56500
X52000Y-57500
X52000Y-58500
X52000Y-59500
X53400Y-56500
X53400Y-57500
X53400Y-58500
X53400Y-59500
X54600Y-56300
X54600Y-57300
X54700Y-54000
X54700Y-60000
X55700Y-54000
X55700Y-60000
X56700Y-54000
X56700Y-60000
X57700Y-54000
X57700Y-60000
X58700Y-54000
X58700Y-60000
X59700Y-54000
X59700Y-60000
X60700Y-54000
X60700Y-60000
X61700Y-54000
X61700Y-60000
X62700Y-54000
X62700Y-60000
X63700Y-54000
X63700Y-60000
X64700Y-54000
X64700Y-60000
X65700Y-54000
X65700Y-60000
X66803Y-55503
X66803Y-56503
X66803Y-57503
X66803Y-58503
T0
M30
