G04 #@! TF.FileFunction,Legend,Bot*
%FSLAX46Y46*%
G04 Gerber Fmt 4.6, Leading zero omitted, Abs format (unit mm)*
G04 Created by KiCad (PCBNEW (2014-10-31 BZR 5247)-product) date Sonntag, 14. Dezember 2014 16:47:01*
%MOMM*%
G01*
G04 APERTURE LIST*
%ADD10C,0.100000*%
%ADD11C,0.150000*%
G04 APERTURE END LIST*
D10*
D11*
X140208000Y-153670000D02*
X168148000Y-153670000D01*
X168148000Y-153670000D02*
X168148000Y-151130000D01*
X168148000Y-151130000D02*
X140208000Y-151130000D01*
X137668000Y-153670000D02*
X140208000Y-153670000D01*
X140208000Y-153670000D02*
X140208000Y-151130000D01*
X137668000Y-153670000D02*
X137668000Y-151130000D01*
X137668000Y-151130000D02*
X140208000Y-151130000D01*
X140208000Y-138430000D02*
X168148000Y-138430000D01*
X168148000Y-138430000D02*
X168148000Y-135890000D01*
X168148000Y-135890000D02*
X140208000Y-135890000D01*
X137668000Y-138430000D02*
X140208000Y-138430000D01*
X140208000Y-138430000D02*
X140208000Y-135890000D01*
X137668000Y-138430000D02*
X137668000Y-135890000D01*
X137668000Y-135890000D02*
X140208000Y-135890000D01*
X191364000Y-144780000D02*
G75*
G03X191364000Y-144780000I-9500000J0D01*
G01*
X186264000Y-144780000D02*
G75*
G03X186264000Y-144780000I-4400000J0D01*
G01*
X167680000Y-150788000D02*
X152680000Y-150788000D01*
X152680000Y-150788000D02*
X152680000Y-138788000D01*
X152680000Y-138788000D02*
X167680000Y-138788000D01*
X167680000Y-150788000D02*
X167680000Y-138788000D01*
X168410000Y-147328000D02*
X168410000Y-139708000D01*
X170950000Y-147328000D02*
X170950000Y-139708000D01*
X170950000Y-149868000D02*
X170950000Y-147328000D01*
X168410000Y-139708000D02*
X170950000Y-139708000D01*
X170950000Y-147328000D02*
X168410000Y-147328000D01*
X170950000Y-149868000D02*
X168410000Y-149868000D01*
X168410000Y-149868000D02*
X168410000Y-147328000D01*
X169037000Y-139319000D02*
G75*
G03X169037000Y-139319000I-127000J0D01*
G01*
X168910000Y-138176000D02*
X168910000Y-139192000D01*
X168910000Y-139192000D02*
X170434000Y-139192000D01*
X170434000Y-139192000D02*
X170434000Y-138176000D01*
X170434000Y-137160000D02*
X170434000Y-136144000D01*
X170434000Y-136144000D02*
X168910000Y-136144000D01*
X168910000Y-136144000D02*
X168910000Y-137160000D01*
X170561000Y-150241000D02*
G75*
G03X170561000Y-150241000I-127000J0D01*
G01*
X170434000Y-151384000D02*
X170434000Y-150368000D01*
X170434000Y-150368000D02*
X168910000Y-150368000D01*
X168910000Y-150368000D02*
X168910000Y-151384000D01*
X168910000Y-152400000D02*
X168910000Y-153416000D01*
X168910000Y-153416000D02*
X170434000Y-153416000D01*
X170434000Y-153416000D02*
X170434000Y-152400000D01*
X182625905Y-151852381D02*
X182625905Y-152661905D01*
X182578286Y-152757143D01*
X182530667Y-152804762D01*
X182435429Y-152852381D01*
X182244952Y-152852381D01*
X182149714Y-152804762D01*
X182102095Y-152757143D01*
X182054476Y-152661905D01*
X182054476Y-151852381D01*
X181054476Y-152852381D02*
X181625905Y-152852381D01*
X181340191Y-152852381D02*
X181340191Y-151852381D01*
X181435429Y-151995238D01*
X181530667Y-152090476D01*
X181625905Y-152138095D01*
X184149714Y-137612381D02*
X184149714Y-136612381D01*
X183816380Y-137326667D01*
X183483047Y-136612381D01*
X183483047Y-137612381D01*
X182340190Y-137707619D02*
X182435428Y-137660000D01*
X182530666Y-137564762D01*
X182673523Y-137421905D01*
X182768762Y-137374286D01*
X182864000Y-137374286D01*
X182816381Y-137612381D02*
X182911619Y-137564762D01*
X183006857Y-137469524D01*
X183054476Y-137279048D01*
X183054476Y-136945714D01*
X183006857Y-136755238D01*
X182911619Y-136660000D01*
X182816381Y-136612381D01*
X182625904Y-136612381D01*
X182530666Y-136660000D01*
X182435428Y-136755238D01*
X182387809Y-136945714D01*
X182387809Y-137279048D01*
X182435428Y-137469524D01*
X182530666Y-137564762D01*
X182625904Y-137612381D01*
X182816381Y-137612381D01*
X181435428Y-137612381D02*
X182006857Y-137612381D01*
X181721143Y-137612381D02*
X181721143Y-136612381D01*
X181816381Y-136755238D01*
X181911619Y-136850476D01*
X182006857Y-136898095D01*
X181102095Y-136612381D02*
X180483047Y-136612381D01*
X180816381Y-136993333D01*
X180673523Y-136993333D01*
X180578285Y-137040952D01*
X180530666Y-137088571D01*
X180483047Y-137183810D01*
X180483047Y-137421905D01*
X180530666Y-137517143D01*
X180578285Y-137564762D01*
X180673523Y-137612381D01*
X180959238Y-137612381D01*
X181054476Y-137564762D01*
X181102095Y-137517143D01*
X179578285Y-136612381D02*
X180054476Y-136612381D01*
X180102095Y-137088571D01*
X180054476Y-137040952D01*
X179959238Y-136993333D01*
X179721142Y-136993333D01*
X179625904Y-137040952D01*
X179578285Y-137088571D01*
X179530666Y-137183810D01*
X179530666Y-137421905D01*
X179578285Y-137517143D01*
X179625904Y-137564762D01*
X179721142Y-137612381D01*
X179959238Y-137612381D01*
X180054476Y-137564762D01*
X180102095Y-137517143D01*
X172061143Y-137501334D02*
X172108762Y-137453715D01*
X172156381Y-137310858D01*
X172156381Y-137215620D01*
X172108762Y-137072762D01*
X172013524Y-136977524D01*
X171918286Y-136929905D01*
X171727810Y-136882286D01*
X171584952Y-136882286D01*
X171394476Y-136929905D01*
X171299238Y-136977524D01*
X171204000Y-137072762D01*
X171156381Y-137215620D01*
X171156381Y-137310858D01*
X171204000Y-137453715D01*
X171251619Y-137501334D01*
X171489714Y-138358477D02*
X172156381Y-138358477D01*
X171108762Y-138120381D02*
X171823048Y-137882286D01*
X171823048Y-138501334D01*
X172156381Y-151725334D02*
X171680190Y-151392000D01*
X172156381Y-151153905D02*
X171156381Y-151153905D01*
X171156381Y-151534858D01*
X171204000Y-151630096D01*
X171251619Y-151677715D01*
X171346857Y-151725334D01*
X171489714Y-151725334D01*
X171584952Y-151677715D01*
X171632571Y-151630096D01*
X171680190Y-151534858D01*
X171680190Y-151153905D01*
X171156381Y-152582477D02*
X171156381Y-152392000D01*
X171204000Y-152296762D01*
X171251619Y-152249143D01*
X171394476Y-152153905D01*
X171584952Y-152106286D01*
X171965905Y-152106286D01*
X172061143Y-152153905D01*
X172108762Y-152201524D01*
X172156381Y-152296762D01*
X172156381Y-152487239D01*
X172108762Y-152582477D01*
X172061143Y-152630096D01*
X171965905Y-152677715D01*
X171727810Y-152677715D01*
X171632571Y-152630096D01*
X171584952Y-152582477D01*
X171537333Y-152487239D01*
X171537333Y-152296762D01*
X171584952Y-152201524D01*
X171632571Y-152153905D01*
X171727810Y-152106286D01*
M02*
