G04 #@! TF.FileFunction,Copper,L2,Bot,Signal*
%FSLAX46Y46*%
G04 Gerber Fmt 4.6, Leading zero omitted, Abs format (unit mm)*
G04 Created by KiCad (PCBNEW (2014-10-31 BZR 5247)-product) date Sonntag, 14. Dezember 2014 16:47:01*
%MOMM*%
G01*
G04 APERTURE LIST*
%ADD10C,0.100000*%
%ADD11R,2.032000X2.032000*%
%ADD12O,2.032000X2.032000*%
%ADD13R,2.032000X1.727200*%
%ADD14O,2.032000X1.727200*%
%ADD15R,1.727200X2.032000*%
%ADD16O,1.727200X2.032000*%
%ADD17C,2.000000*%
%ADD18C,1.397000*%
%ADD19R,1.397000X0.889000*%
%ADD20C,0.889000*%
%ADD21C,1.524000*%
%ADD22C,0.254000*%
%ADD23C,1.016000*%
G04 APERTURE END LIST*
D10*
D11*
X138684000Y-143002000D03*
D12*
X138684000Y-145542000D03*
D13*
X135636000Y-151130000D03*
D14*
X135636000Y-148590000D03*
X135636000Y-146050000D03*
X135636000Y-143510000D03*
D13*
X132080000Y-151130000D03*
D14*
X132080000Y-148590000D03*
X132080000Y-146050000D03*
X132080000Y-143510000D03*
D15*
X138938000Y-152400000D03*
D16*
X141478000Y-152400000D03*
X144018000Y-152400000D03*
X146558000Y-152400000D03*
X149098000Y-152400000D03*
X151638000Y-152400000D03*
X154178000Y-152400000D03*
X156718000Y-152400000D03*
X159258000Y-152400000D03*
X161798000Y-152400000D03*
X164338000Y-152400000D03*
X166878000Y-152400000D03*
D15*
X138938000Y-137160000D03*
D16*
X141478000Y-137160000D03*
X144018000Y-137160000D03*
X146558000Y-137160000D03*
X149098000Y-137160000D03*
X151638000Y-137160000D03*
X154178000Y-137160000D03*
X156718000Y-137160000D03*
X159258000Y-137160000D03*
X161798000Y-137160000D03*
X164338000Y-137160000D03*
X166878000Y-137160000D03*
D17*
X181864000Y-149030000D03*
X181864000Y-140530000D03*
X184869000Y-147785000D03*
X178859000Y-147785000D03*
X178859000Y-141775000D03*
X184869000Y-141775000D03*
D18*
X161036000Y-140970000D03*
X166116000Y-140970000D03*
X161036000Y-148590000D03*
X166116000Y-148590000D03*
D13*
X169680000Y-148598000D03*
D14*
X169680000Y-146058000D03*
X169680000Y-143518000D03*
X169680000Y-140978000D03*
D19*
X169672000Y-138620500D03*
X169672000Y-136715500D03*
X169672000Y-150939500D03*
X169672000Y-152844500D03*
D20*
X154940000Y-143764000D03*
X167640000Y-139700000D03*
X157480000Y-144272000D03*
X141224000Y-148336000D03*
X146812000Y-149352000D03*
X146304000Y-144272000D03*
X157480000Y-140208000D03*
X151384000Y-140208000D03*
X145796000Y-140208000D03*
X138684000Y-140208000D03*
X134620000Y-136652000D03*
X172720000Y-137160000D03*
X187960000Y-141224000D03*
X159512000Y-147320000D03*
X164084000Y-147320000D03*
X162052000Y-144272000D03*
X159512000Y-144272000D03*
X162560000Y-141224000D03*
X159004000Y-139192000D03*
D21*
X143764000Y-149352000D03*
X143764000Y-144780000D03*
X159512000Y-145796000D03*
D22*
X169672000Y-138620500D02*
X168719500Y-138620500D01*
X167640000Y-139700000D02*
X168719500Y-138620500D01*
X155448000Y-144272000D02*
X157480000Y-144272000D01*
X155448000Y-144272000D02*
X154940000Y-143764000D01*
X146558000Y-152400000D02*
X146558000Y-153670000D01*
X132080000Y-153416000D02*
X132080000Y-151130000D01*
X132588000Y-153924000D02*
X132080000Y-153416000D01*
X146304000Y-153924000D02*
X132588000Y-153924000D01*
X146558000Y-153670000D02*
X146304000Y-153924000D01*
X170934000Y-148598000D02*
X171704000Y-147828000D01*
X171704000Y-147828000D02*
X171704000Y-139192000D01*
X171704000Y-139192000D02*
X171132500Y-138620500D01*
X171132500Y-138620500D02*
X169672000Y-138620500D01*
X169680000Y-148598000D02*
X170934000Y-148598000D01*
X151384000Y-140208000D02*
X157480000Y-140208000D01*
X145796000Y-140208000D02*
X151384000Y-140208000D01*
X138684000Y-140208000D02*
X145796000Y-140208000D01*
X169672000Y-136144000D02*
X169164000Y-135636000D01*
X169164000Y-135636000D02*
X135636000Y-135636000D01*
X135636000Y-135636000D02*
X134620000Y-136652000D01*
X169672000Y-136715500D02*
X169672000Y-136144000D01*
X172720000Y-137160000D02*
X183896000Y-137160000D01*
X172275500Y-136715500D02*
X169672000Y-136715500D01*
X172275500Y-136715500D02*
X172720000Y-137160000D01*
X187960000Y-141224000D02*
X183896000Y-137160000D01*
X135636000Y-146050000D02*
X135890000Y-146050000D01*
X139192000Y-149860000D02*
X141224000Y-149860000D01*
X141224000Y-149860000D02*
X143764000Y-147320000D01*
X143764000Y-147320000D02*
X159512000Y-147320000D01*
X164084000Y-147320000D02*
X164338000Y-147574000D01*
X164338000Y-147574000D02*
X164338000Y-152400000D01*
X135636000Y-146304000D02*
X139192000Y-149860000D01*
X135636000Y-146050000D02*
X135636000Y-146304000D01*
X159004000Y-143764000D02*
X159512000Y-144272000D01*
X161798000Y-152400000D02*
X161798000Y-150114000D01*
X162560000Y-149352000D02*
X161798000Y-150114000D01*
X162560000Y-144780000D02*
X162560000Y-149352000D01*
X162052000Y-144272000D02*
X162560000Y-144780000D01*
X157988000Y-142748000D02*
X159004000Y-143764000D01*
X142240000Y-142748000D02*
X157988000Y-142748000D01*
X141224000Y-143764000D02*
X142240000Y-142748000D01*
X141224000Y-146304000D02*
X141224000Y-143764000D01*
X140208000Y-147320000D02*
X141224000Y-146304000D01*
X137668000Y-147320000D02*
X140208000Y-147320000D01*
X137160000Y-146812000D02*
X137668000Y-147320000D01*
X137160000Y-144272000D02*
X137160000Y-146812000D01*
X136398000Y-143510000D02*
X137160000Y-144272000D01*
X135636000Y-143510000D02*
X136398000Y-143510000D01*
X132080000Y-146050000D02*
X132334000Y-146050000D01*
X133604000Y-144780000D02*
X133604000Y-143256000D01*
X132334000Y-146050000D02*
X133604000Y-144780000D01*
X161544000Y-139700000D02*
X162560000Y-140716000D01*
X160020000Y-139700000D02*
X161544000Y-139700000D01*
X158496000Y-141224000D02*
X160020000Y-139700000D01*
X141224000Y-141224000D02*
X158496000Y-141224000D01*
X135636000Y-141224000D02*
X141224000Y-141224000D01*
X133604000Y-143256000D02*
X135636000Y-141224000D01*
X162560000Y-141224000D02*
X162560000Y-140716000D01*
X132080000Y-143510000D02*
X132080000Y-142748000D01*
X132080000Y-143510000D02*
X132080000Y-142240000D01*
X135128000Y-139192000D02*
X159004000Y-139192000D01*
X132080000Y-142240000D02*
X135128000Y-139192000D01*
D23*
X144018000Y-149606000D02*
X143764000Y-149352000D01*
X143764000Y-144780000D02*
X144780000Y-145796000D01*
X144780000Y-145796000D02*
X159512000Y-145796000D01*
X144018000Y-152400000D02*
X144018000Y-149606000D01*
D22*
X161036000Y-148590000D02*
X161036000Y-140970000D01*
X155702000Y-148590000D02*
X161036000Y-148590000D01*
X149098000Y-149098000D02*
X149606000Y-148590000D01*
X149606000Y-148590000D02*
X161036000Y-148590000D01*
X149098000Y-152400000D02*
X149098000Y-149098000D01*
X169672000Y-153416000D02*
X169672000Y-152844500D01*
X168902000Y-146058000D02*
X169680000Y-146058000D01*
X167640000Y-150876000D02*
X167640000Y-147320000D01*
X167640000Y-147320000D02*
X168902000Y-146058000D01*
X169608500Y-152844500D02*
X167640000Y-150876000D01*
X169672000Y-152844500D02*
X169608500Y-152844500D01*
X154178000Y-153670000D02*
X154432000Y-153924000D01*
X154432000Y-153924000D02*
X169164000Y-153924000D01*
X154178000Y-152400000D02*
X154178000Y-153670000D01*
X169672000Y-153416000D02*
X169164000Y-153924000D01*
X169672000Y-152844500D02*
X169672000Y-153416000D01*
X166116000Y-140970000D02*
X166116000Y-148590000D01*
G36*
X142875000Y-151280297D02*
X142748000Y-151470365D01*
X142537670Y-151155585D01*
X142051489Y-150830729D01*
X141478000Y-150716655D01*
X140904511Y-150830729D01*
X140418330Y-151155585D01*
X140403499Y-151177780D01*
X140339927Y-151024302D01*
X140161299Y-150845673D01*
X139927910Y-150749000D01*
X139675291Y-150749000D01*
X137948091Y-150749000D01*
X137714702Y-150845673D01*
X137536073Y-151024301D01*
X137439400Y-151257690D01*
X137439400Y-151510309D01*
X137439400Y-153542309D01*
X137524185Y-153747000D01*
X133731000Y-153747000D01*
X133731000Y-152119909D01*
X133731000Y-151415750D01*
X133572250Y-151257000D01*
X132207000Y-151257000D01*
X132207000Y-152469850D01*
X132365750Y-152628600D01*
X132969691Y-152628600D01*
X133222310Y-152628600D01*
X133455699Y-152531927D01*
X133634327Y-152353298D01*
X133731000Y-152119909D01*
X133731000Y-153747000D01*
X131953000Y-153747000D01*
X131953000Y-152469850D01*
X131953000Y-151257000D01*
X130587750Y-151257000D01*
X130429000Y-151415750D01*
X130429000Y-152119909D01*
X130525673Y-152353298D01*
X130704301Y-152531927D01*
X130937690Y-152628600D01*
X131190309Y-152628600D01*
X131794250Y-152628600D01*
X131953000Y-152469850D01*
X131953000Y-153747000D01*
X131000000Y-153747000D01*
X130737862Y-153799143D01*
X130515632Y-153947632D01*
X130409730Y-154106125D01*
X130175000Y-153871395D01*
X130175000Y-140794490D01*
X131093981Y-140335000D01*
X132640605Y-140335000D01*
X133223000Y-139752605D01*
X133223000Y-136173981D01*
X133556805Y-135506368D01*
X133627632Y-135612368D01*
X133849862Y-135760857D01*
X133962314Y-135783225D01*
X133705378Y-136039714D01*
X133540687Y-136436332D01*
X133540313Y-136865784D01*
X133704311Y-137262689D01*
X134007714Y-137566622D01*
X134404332Y-137731313D01*
X134833784Y-137731687D01*
X135230689Y-137567689D01*
X135534622Y-137264286D01*
X135699313Y-136867668D01*
X135699502Y-136650127D01*
X135951630Y-136398000D01*
X137439400Y-136398000D01*
X137439400Y-138302309D01*
X137492291Y-138430000D01*
X135128000Y-138430000D01*
X134836395Y-138488004D01*
X134589185Y-138653185D01*
X131541185Y-141701185D01*
X131376004Y-141948395D01*
X131341564Y-142121535D01*
X131321766Y-142125474D01*
X130835585Y-142450330D01*
X130510729Y-142936511D01*
X130396655Y-143510000D01*
X130510729Y-144083489D01*
X130835585Y-144569670D01*
X131150365Y-144780000D01*
X130835585Y-144990330D01*
X130510729Y-145476511D01*
X130396655Y-146050000D01*
X130510729Y-146623489D01*
X130835585Y-147109670D01*
X131150365Y-147320000D01*
X130835585Y-147530330D01*
X130510729Y-148016511D01*
X130396655Y-148590000D01*
X130510729Y-149163489D01*
X130835585Y-149649670D01*
X130857779Y-149664499D01*
X130704301Y-149728073D01*
X130525673Y-149906702D01*
X130429000Y-150140091D01*
X130429000Y-150844250D01*
X130587750Y-151003000D01*
X131953000Y-151003000D01*
X131953000Y-150983000D01*
X132207000Y-150983000D01*
X132207000Y-151003000D01*
X133572250Y-151003000D01*
X133731000Y-150844250D01*
X133731000Y-150140091D01*
X133634327Y-149906702D01*
X133455699Y-149728073D01*
X133302220Y-149664499D01*
X133324415Y-149649670D01*
X133649271Y-149163489D01*
X133763345Y-148590000D01*
X133649271Y-148016511D01*
X133324415Y-147530330D01*
X133009634Y-147320000D01*
X133324415Y-147109670D01*
X133649271Y-146623489D01*
X133763345Y-146050000D01*
X133704991Y-145756638D01*
X134142815Y-145318816D01*
X134142815Y-145318815D01*
X134307996Y-145071605D01*
X134365999Y-144780000D01*
X134366000Y-144780000D01*
X134366000Y-144531379D01*
X134391585Y-144569670D01*
X134706365Y-144780000D01*
X134391585Y-144990330D01*
X134066729Y-145476511D01*
X133952655Y-146050000D01*
X134066729Y-146623489D01*
X134391585Y-147109670D01*
X134701069Y-147316460D01*
X134285268Y-147687964D01*
X134031291Y-148215209D01*
X134028642Y-148230974D01*
X134149783Y-148463000D01*
X135509000Y-148463000D01*
X135509000Y-148443000D01*
X135763000Y-148443000D01*
X135763000Y-148463000D01*
X135783000Y-148463000D01*
X135783000Y-148717000D01*
X135763000Y-148717000D01*
X135763000Y-148737000D01*
X135509000Y-148737000D01*
X135509000Y-148717000D01*
X134149783Y-148717000D01*
X134028642Y-148949026D01*
X134031291Y-148964791D01*
X134285268Y-149492036D01*
X134457860Y-149646241D01*
X134260302Y-149728073D01*
X134081673Y-149906701D01*
X133985000Y-150140090D01*
X133985000Y-150392709D01*
X133985000Y-152119909D01*
X134081673Y-152353298D01*
X134260301Y-152531927D01*
X134493690Y-152628600D01*
X134746309Y-152628600D01*
X136778309Y-152628600D01*
X137011698Y-152531927D01*
X137190327Y-152353299D01*
X137287000Y-152119910D01*
X137287000Y-151867291D01*
X137287000Y-150140091D01*
X137190327Y-149906702D01*
X137011699Y-149728073D01*
X136814139Y-149646241D01*
X136986732Y-149492036D01*
X137233703Y-148979334D01*
X138653184Y-150398815D01*
X138653185Y-150398815D01*
X138900395Y-150563996D01*
X139192000Y-150622000D01*
X141224000Y-150622000D01*
X141224000Y-150621999D01*
X141515604Y-150563996D01*
X141515605Y-150563996D01*
X141762815Y-150398815D01*
X142415355Y-149746275D01*
X142578990Y-150142303D01*
X142875000Y-150438830D01*
X142875000Y-151280297D01*
X142875000Y-151280297D01*
G37*
X142875000Y-151280297D02*
X142748000Y-151470365D01*
X142537670Y-151155585D01*
X142051489Y-150830729D01*
X141478000Y-150716655D01*
X140904511Y-150830729D01*
X140418330Y-151155585D01*
X140403499Y-151177780D01*
X140339927Y-151024302D01*
X140161299Y-150845673D01*
X139927910Y-150749000D01*
X139675291Y-150749000D01*
X137948091Y-150749000D01*
X137714702Y-150845673D01*
X137536073Y-151024301D01*
X137439400Y-151257690D01*
X137439400Y-151510309D01*
X137439400Y-153542309D01*
X137524185Y-153747000D01*
X133731000Y-153747000D01*
X133731000Y-152119909D01*
X133731000Y-151415750D01*
X133572250Y-151257000D01*
X132207000Y-151257000D01*
X132207000Y-152469850D01*
X132365750Y-152628600D01*
X132969691Y-152628600D01*
X133222310Y-152628600D01*
X133455699Y-152531927D01*
X133634327Y-152353298D01*
X133731000Y-152119909D01*
X133731000Y-153747000D01*
X131953000Y-153747000D01*
X131953000Y-152469850D01*
X131953000Y-151257000D01*
X130587750Y-151257000D01*
X130429000Y-151415750D01*
X130429000Y-152119909D01*
X130525673Y-152353298D01*
X130704301Y-152531927D01*
X130937690Y-152628600D01*
X131190309Y-152628600D01*
X131794250Y-152628600D01*
X131953000Y-152469850D01*
X131953000Y-153747000D01*
X131000000Y-153747000D01*
X130737862Y-153799143D01*
X130515632Y-153947632D01*
X130409730Y-154106125D01*
X130175000Y-153871395D01*
X130175000Y-140794490D01*
X131093981Y-140335000D01*
X132640605Y-140335000D01*
X133223000Y-139752605D01*
X133223000Y-136173981D01*
X133556805Y-135506368D01*
X133627632Y-135612368D01*
X133849862Y-135760857D01*
X133962314Y-135783225D01*
X133705378Y-136039714D01*
X133540687Y-136436332D01*
X133540313Y-136865784D01*
X133704311Y-137262689D01*
X134007714Y-137566622D01*
X134404332Y-137731313D01*
X134833784Y-137731687D01*
X135230689Y-137567689D01*
X135534622Y-137264286D01*
X135699313Y-136867668D01*
X135699502Y-136650127D01*
X135951630Y-136398000D01*
X137439400Y-136398000D01*
X137439400Y-138302309D01*
X137492291Y-138430000D01*
X135128000Y-138430000D01*
X134836395Y-138488004D01*
X134589185Y-138653185D01*
X131541185Y-141701185D01*
X131376004Y-141948395D01*
X131341564Y-142121535D01*
X131321766Y-142125474D01*
X130835585Y-142450330D01*
X130510729Y-142936511D01*
X130396655Y-143510000D01*
X130510729Y-144083489D01*
X130835585Y-144569670D01*
X131150365Y-144780000D01*
X130835585Y-144990330D01*
X130510729Y-145476511D01*
X130396655Y-146050000D01*
X130510729Y-146623489D01*
X130835585Y-147109670D01*
X131150365Y-147320000D01*
X130835585Y-147530330D01*
X130510729Y-148016511D01*
X130396655Y-148590000D01*
X130510729Y-149163489D01*
X130835585Y-149649670D01*
X130857779Y-149664499D01*
X130704301Y-149728073D01*
X130525673Y-149906702D01*
X130429000Y-150140091D01*
X130429000Y-150844250D01*
X130587750Y-151003000D01*
X131953000Y-151003000D01*
X131953000Y-150983000D01*
X132207000Y-150983000D01*
X132207000Y-151003000D01*
X133572250Y-151003000D01*
X133731000Y-150844250D01*
X133731000Y-150140091D01*
X133634327Y-149906702D01*
X133455699Y-149728073D01*
X133302220Y-149664499D01*
X133324415Y-149649670D01*
X133649271Y-149163489D01*
X133763345Y-148590000D01*
X133649271Y-148016511D01*
X133324415Y-147530330D01*
X133009634Y-147320000D01*
X133324415Y-147109670D01*
X133649271Y-146623489D01*
X133763345Y-146050000D01*
X133704991Y-145756638D01*
X134142815Y-145318816D01*
X134142815Y-145318815D01*
X134307996Y-145071605D01*
X134365999Y-144780000D01*
X134366000Y-144780000D01*
X134366000Y-144531379D01*
X134391585Y-144569670D01*
X134706365Y-144780000D01*
X134391585Y-144990330D01*
X134066729Y-145476511D01*
X133952655Y-146050000D01*
X134066729Y-146623489D01*
X134391585Y-147109670D01*
X134701069Y-147316460D01*
X134285268Y-147687964D01*
X134031291Y-148215209D01*
X134028642Y-148230974D01*
X134149783Y-148463000D01*
X135509000Y-148463000D01*
X135509000Y-148443000D01*
X135763000Y-148443000D01*
X135763000Y-148463000D01*
X135783000Y-148463000D01*
X135783000Y-148717000D01*
X135763000Y-148717000D01*
X135763000Y-148737000D01*
X135509000Y-148737000D01*
X135509000Y-148717000D01*
X134149783Y-148717000D01*
X134028642Y-148949026D01*
X134031291Y-148964791D01*
X134285268Y-149492036D01*
X134457860Y-149646241D01*
X134260302Y-149728073D01*
X134081673Y-149906701D01*
X133985000Y-150140090D01*
X133985000Y-150392709D01*
X133985000Y-152119909D01*
X134081673Y-152353298D01*
X134260301Y-152531927D01*
X134493690Y-152628600D01*
X134746309Y-152628600D01*
X136778309Y-152628600D01*
X137011698Y-152531927D01*
X137190327Y-152353299D01*
X137287000Y-152119910D01*
X137287000Y-151867291D01*
X137287000Y-150140091D01*
X137190327Y-149906702D01*
X137011699Y-149728073D01*
X136814139Y-149646241D01*
X136986732Y-149492036D01*
X137233703Y-148979334D01*
X138653184Y-150398815D01*
X138653185Y-150398815D01*
X138900395Y-150563996D01*
X139192000Y-150622000D01*
X141224000Y-150622000D01*
X141224000Y-150621999D01*
X141515604Y-150563996D01*
X141515605Y-150563996D01*
X141762815Y-150398815D01*
X142415355Y-149746275D01*
X142578990Y-150142303D01*
X142875000Y-150438830D01*
X142875000Y-151280297D01*
G36*
X143925554Y-146558000D02*
X143764000Y-146558000D01*
X143472395Y-146616004D01*
X143225184Y-146781185D01*
X140908369Y-149098000D01*
X139507630Y-149098000D01*
X138491630Y-148082000D01*
X140208000Y-148082000D01*
X140208000Y-148081999D01*
X140499604Y-148023996D01*
X140499605Y-148023996D01*
X140746815Y-147858815D01*
X141762815Y-146842815D01*
X141927996Y-146595605D01*
X141927996Y-146595604D01*
X141985999Y-146304000D01*
X141986000Y-146304000D01*
X141986000Y-144079630D01*
X142555630Y-143510000D01*
X143179389Y-143510000D01*
X142973697Y-143594990D01*
X142580371Y-143987630D01*
X142367243Y-144500900D01*
X142366758Y-145056661D01*
X142578990Y-145570303D01*
X142971630Y-145963629D01*
X143484900Y-146176757D01*
X143544362Y-146176808D01*
X143925554Y-146558000D01*
X143925554Y-146558000D01*
G37*
X143925554Y-146558000D02*
X143764000Y-146558000D01*
X143472395Y-146616004D01*
X143225184Y-146781185D01*
X140908369Y-149098000D01*
X139507630Y-149098000D01*
X138491630Y-148082000D01*
X140208000Y-148082000D01*
X140208000Y-148081999D01*
X140499604Y-148023996D01*
X140499605Y-148023996D01*
X140746815Y-147858815D01*
X141762815Y-146842815D01*
X141927996Y-146595605D01*
X141927996Y-146595604D01*
X141985999Y-146304000D01*
X141986000Y-146304000D01*
X141986000Y-144079630D01*
X142555630Y-143510000D01*
X143179389Y-143510000D01*
X142973697Y-143594990D01*
X142580371Y-143987630D01*
X142367243Y-144500900D01*
X142366758Y-145056661D01*
X142578990Y-145570303D01*
X142971630Y-145963629D01*
X143484900Y-146176757D01*
X143544362Y-146176808D01*
X143925554Y-146558000D01*
G36*
X149036369Y-148082000D02*
X148559185Y-148559185D01*
X148394004Y-148806395D01*
X148336000Y-149098000D01*
X148336000Y-150956688D01*
X148038330Y-151155585D01*
X147831539Y-151465069D01*
X147460036Y-151049268D01*
X146932791Y-150795291D01*
X146917026Y-150792642D01*
X146685000Y-150913783D01*
X146685000Y-152273000D01*
X146705000Y-152273000D01*
X146705000Y-152527000D01*
X146685000Y-152527000D01*
X146685000Y-152547000D01*
X146431000Y-152547000D01*
X146431000Y-152527000D01*
X146411000Y-152527000D01*
X146411000Y-152273000D01*
X146431000Y-152273000D01*
X146431000Y-150913783D01*
X146198974Y-150792642D01*
X146183209Y-150795291D01*
X145655964Y-151049268D01*
X145284460Y-151465069D01*
X145161000Y-151280297D01*
X145161000Y-149606000D01*
X145160779Y-149604893D01*
X145161242Y-149075339D01*
X144949010Y-148561697D01*
X144556370Y-148168371D01*
X144348365Y-148082000D01*
X149036369Y-148082000D01*
X149036369Y-148082000D01*
G37*
X149036369Y-148082000D02*
X148559185Y-148559185D01*
X148394004Y-148806395D01*
X148336000Y-149098000D01*
X148336000Y-150956688D01*
X148038330Y-151155585D01*
X147831539Y-151465069D01*
X147460036Y-151049268D01*
X146932791Y-150795291D01*
X146917026Y-150792642D01*
X146685000Y-150913783D01*
X146685000Y-152273000D01*
X146705000Y-152273000D01*
X146705000Y-152527000D01*
X146685000Y-152527000D01*
X146685000Y-152547000D01*
X146431000Y-152547000D01*
X146431000Y-152527000D01*
X146411000Y-152527000D01*
X146411000Y-152273000D01*
X146431000Y-152273000D01*
X146431000Y-150913783D01*
X146198974Y-150792642D01*
X146183209Y-150795291D01*
X145655964Y-151049268D01*
X145284460Y-151465069D01*
X145161000Y-151280297D01*
X145161000Y-149606000D01*
X145160779Y-149604893D01*
X145161242Y-149075339D01*
X144949010Y-148561697D01*
X144556370Y-148168371D01*
X144348365Y-148082000D01*
X149036369Y-148082000D01*
G36*
X158501405Y-144653000D02*
X145253446Y-144653000D01*
X145161191Y-144560745D01*
X145161242Y-144503339D01*
X144949010Y-143989697D01*
X144556370Y-143596371D01*
X144348365Y-143510000D01*
X157672370Y-143510000D01*
X158432500Y-144270130D01*
X158432313Y-144485784D01*
X158501405Y-144653000D01*
X158501405Y-144653000D01*
G37*
X158501405Y-144653000D02*
X145253446Y-144653000D01*
X145161191Y-144560745D01*
X145161242Y-144503339D01*
X144949010Y-143989697D01*
X144556370Y-143596371D01*
X144348365Y-143510000D01*
X157672370Y-143510000D01*
X158432500Y-144270130D01*
X158432313Y-144485784D01*
X158501405Y-144653000D01*
G36*
X191897000Y-153845510D02*
X191536553Y-154025733D01*
X191484368Y-153947632D01*
X191262138Y-153799143D01*
X191000000Y-153747000D01*
X186504284Y-153747000D01*
X186504284Y-147461205D01*
X186504284Y-141451205D01*
X186255894Y-140850057D01*
X185796363Y-140389722D01*
X185195648Y-140140284D01*
X184545205Y-140139716D01*
X183944057Y-140388106D01*
X183498736Y-140832648D01*
X183499284Y-140206205D01*
X183250894Y-139605057D01*
X182791363Y-139144722D01*
X182190648Y-138895284D01*
X181540205Y-138894716D01*
X180939057Y-139143106D01*
X180478722Y-139602637D01*
X180229284Y-140203352D01*
X180228734Y-140832867D01*
X179786363Y-140389722D01*
X179185648Y-140140284D01*
X178535205Y-140139716D01*
X177934057Y-140388106D01*
X177473722Y-140847637D01*
X177224284Y-141448352D01*
X177223716Y-142098795D01*
X177472106Y-142699943D01*
X177931637Y-143160278D01*
X178532352Y-143409716D01*
X179182795Y-143410284D01*
X179783943Y-143161894D01*
X180244278Y-142702363D01*
X180493716Y-142101648D01*
X180494265Y-141472132D01*
X180936637Y-141915278D01*
X181537352Y-142164716D01*
X182187795Y-142165284D01*
X182788943Y-141916894D01*
X183234263Y-141472351D01*
X183233716Y-142098795D01*
X183482106Y-142699943D01*
X183941637Y-143160278D01*
X184542352Y-143409716D01*
X185192795Y-143410284D01*
X185793943Y-143161894D01*
X186254278Y-142702363D01*
X186503716Y-142101648D01*
X186504284Y-141451205D01*
X186504284Y-147461205D01*
X186255894Y-146860057D01*
X185796363Y-146399722D01*
X185195648Y-146150284D01*
X184545205Y-146149716D01*
X183944057Y-146398106D01*
X183483722Y-146857637D01*
X183234284Y-147458352D01*
X183233734Y-148087867D01*
X182791363Y-147644722D01*
X182190648Y-147395284D01*
X181540205Y-147394716D01*
X180939057Y-147643106D01*
X180493736Y-148087648D01*
X180494284Y-147461205D01*
X180245894Y-146860057D01*
X179786363Y-146399722D01*
X179185648Y-146150284D01*
X178535205Y-146149716D01*
X177934057Y-146398106D01*
X177473722Y-146857637D01*
X177224284Y-147458352D01*
X177223716Y-148108795D01*
X177472106Y-148709943D01*
X177931637Y-149170278D01*
X178532352Y-149419716D01*
X179182795Y-149420284D01*
X179783943Y-149171894D01*
X180229263Y-148727351D01*
X180228716Y-149353795D01*
X180477106Y-149954943D01*
X180936637Y-150415278D01*
X181537352Y-150664716D01*
X182187795Y-150665284D01*
X182788943Y-150416894D01*
X183249278Y-149957363D01*
X183498716Y-149356648D01*
X183499265Y-148727132D01*
X183941637Y-149170278D01*
X184542352Y-149419716D01*
X185192795Y-149420284D01*
X185793943Y-149171894D01*
X186254278Y-148712363D01*
X186503716Y-148111648D01*
X186504284Y-147461205D01*
X186504284Y-153747000D01*
X171331000Y-153747000D01*
X171331000Y-149587909D01*
X171331000Y-148883750D01*
X171172250Y-148725000D01*
X169807000Y-148725000D01*
X169807000Y-149937850D01*
X169843450Y-149974300D01*
X169799000Y-150018750D01*
X169799000Y-150812500D01*
X170846750Y-150812500D01*
X171005500Y-150653750D01*
X171005500Y-150368691D01*
X170908827Y-150135302D01*
X170856120Y-150082595D01*
X171055699Y-149999927D01*
X171234327Y-149821298D01*
X171331000Y-149587909D01*
X171331000Y-153747000D01*
X170810525Y-153747000D01*
X170908827Y-153648699D01*
X171005500Y-153415310D01*
X171005500Y-153162691D01*
X171005500Y-152273691D01*
X170908827Y-152040302D01*
X170760525Y-151892000D01*
X170908827Y-151743698D01*
X171005500Y-151510309D01*
X171005500Y-151225250D01*
X170846750Y-151066500D01*
X169799000Y-151066500D01*
X169799000Y-151086500D01*
X169545000Y-151086500D01*
X169545000Y-151066500D01*
X169525000Y-151066500D01*
X169525000Y-150812500D01*
X169545000Y-150812500D01*
X169545000Y-150018750D01*
X169508550Y-149982300D01*
X169553000Y-149937850D01*
X169553000Y-148725000D01*
X169533000Y-148725000D01*
X169533000Y-148471000D01*
X169553000Y-148471000D01*
X169553000Y-148451000D01*
X169807000Y-148451000D01*
X169807000Y-148471000D01*
X171172250Y-148471000D01*
X171331000Y-148312250D01*
X171331000Y-147608091D01*
X171234327Y-147374702D01*
X171055699Y-147196073D01*
X170902220Y-147132499D01*
X170924415Y-147117670D01*
X171249271Y-146631489D01*
X171363345Y-146058000D01*
X171249271Y-145484511D01*
X170924415Y-144998330D01*
X170609634Y-144788000D01*
X170924415Y-144577670D01*
X171249271Y-144091489D01*
X171363345Y-143518000D01*
X171249271Y-142944511D01*
X170924415Y-142458330D01*
X170609634Y-142248000D01*
X170924415Y-142037670D01*
X171249271Y-141551489D01*
X171363345Y-140978000D01*
X171249271Y-140404511D01*
X170924415Y-139918330D01*
X170559067Y-139674212D01*
X170730199Y-139603327D01*
X170908827Y-139424698D01*
X171005500Y-139191309D01*
X171005500Y-138906250D01*
X170846750Y-138747500D01*
X169799000Y-138747500D01*
X169799000Y-138767500D01*
X169545000Y-138767500D01*
X169545000Y-138747500D01*
X168497250Y-138747500D01*
X168338500Y-138906250D01*
X168338500Y-139191309D01*
X168435173Y-139424698D01*
X168613801Y-139603327D01*
X168794809Y-139678303D01*
X168435585Y-139918330D01*
X168110729Y-140404511D01*
X167996655Y-140978000D01*
X168110729Y-141551489D01*
X168435585Y-142037670D01*
X168750365Y-142248000D01*
X168435585Y-142458330D01*
X168110729Y-142944511D01*
X167996655Y-143518000D01*
X168110729Y-144091489D01*
X168435585Y-144577670D01*
X168750365Y-144788000D01*
X168435585Y-144998330D01*
X168110729Y-145484511D01*
X168039434Y-145842935D01*
X167101185Y-146781185D01*
X166936004Y-147028395D01*
X166878000Y-147320000D01*
X166878000Y-142093539D01*
X167245827Y-141726353D01*
X167449268Y-141236413D01*
X167449731Y-140705914D01*
X167247146Y-140215620D01*
X166872353Y-139840173D01*
X166382413Y-139636732D01*
X165851914Y-139636269D01*
X165361620Y-139838854D01*
X164986173Y-140213647D01*
X164782732Y-140703587D01*
X164782269Y-141234086D01*
X164984854Y-141724380D01*
X165354000Y-142094170D01*
X165354000Y-147466460D01*
X165100000Y-147720018D01*
X165100000Y-147688141D01*
X165163313Y-147535668D01*
X165163687Y-147106216D01*
X164999689Y-146709311D01*
X164696286Y-146405378D01*
X164299668Y-146240687D01*
X163870216Y-146240313D01*
X163473311Y-146404311D01*
X163322000Y-146555358D01*
X163322000Y-144780000D01*
X163263996Y-144488395D01*
X163131485Y-144290079D01*
X163131485Y-144290078D01*
X163131687Y-144058216D01*
X162967689Y-143661311D01*
X162664286Y-143357378D01*
X162267668Y-143192687D01*
X161838216Y-143192313D01*
X161798000Y-143208929D01*
X161798000Y-142093539D01*
X161850446Y-142041184D01*
X161947714Y-142138622D01*
X162344332Y-142303313D01*
X162773784Y-142303687D01*
X163170689Y-142139689D01*
X163474622Y-141836286D01*
X163639313Y-141439668D01*
X163639687Y-141010216D01*
X163475689Y-140613311D01*
X163217220Y-140354391D01*
X163217219Y-140354390D01*
X163098815Y-140177185D01*
X162082815Y-139161185D01*
X161835605Y-138996004D01*
X161544000Y-138938000D01*
X160067070Y-138938000D01*
X159948515Y-138651076D01*
X160317670Y-138404415D01*
X160528000Y-138089634D01*
X160738330Y-138404415D01*
X161224511Y-138729271D01*
X161798000Y-138843345D01*
X162371489Y-138729271D01*
X162857670Y-138404415D01*
X163068000Y-138089634D01*
X163278330Y-138404415D01*
X163764511Y-138729271D01*
X164338000Y-138843345D01*
X164911489Y-138729271D01*
X165397670Y-138404415D01*
X165608000Y-138089634D01*
X165818330Y-138404415D01*
X166304511Y-138729271D01*
X166878000Y-138843345D01*
X167451489Y-138729271D01*
X167937670Y-138404415D01*
X168262526Y-137918234D01*
X168372092Y-137367407D01*
X168435173Y-137519698D01*
X168583474Y-137668000D01*
X168435173Y-137816302D01*
X168338500Y-138049691D01*
X168338500Y-138334750D01*
X168497250Y-138493500D01*
X169545000Y-138493500D01*
X169545000Y-138473500D01*
X169799000Y-138473500D01*
X169799000Y-138493500D01*
X170846750Y-138493500D01*
X171005500Y-138334750D01*
X171005500Y-138049691D01*
X170908827Y-137816302D01*
X170760525Y-137667999D01*
X170908827Y-137519699D01*
X170926306Y-137477500D01*
X171683167Y-137477500D01*
X171804311Y-137770689D01*
X172107714Y-138074622D01*
X172504332Y-138239313D01*
X172933784Y-138239687D01*
X173330689Y-138075689D01*
X173484646Y-137922000D01*
X183580370Y-137922000D01*
X186880500Y-141222130D01*
X186880313Y-141437784D01*
X187044311Y-141834689D01*
X187347714Y-142138622D01*
X187744332Y-142303313D01*
X188173784Y-142303687D01*
X188570689Y-142139689D01*
X188874622Y-141836286D01*
X189039313Y-141439668D01*
X189039687Y-141010216D01*
X188875689Y-140613311D01*
X188572286Y-140309378D01*
X188175668Y-140144687D01*
X187958127Y-140144497D01*
X184434815Y-136621185D01*
X184187605Y-136456004D01*
X183896000Y-136398000D01*
X173484641Y-136398000D01*
X173332286Y-136245378D01*
X172935668Y-136080687D01*
X172670298Y-136080455D01*
X172670297Y-136080455D01*
X172567105Y-136011504D01*
X172275500Y-135953500D01*
X170926306Y-135953500D01*
X170908827Y-135911302D01*
X170810525Y-135813000D01*
X191000000Y-135813000D01*
X191262138Y-135760857D01*
X191484368Y-135612368D01*
X191559770Y-135499520D01*
X191897000Y-136173981D01*
X191897000Y-153845510D01*
X191897000Y-153845510D01*
G37*
X191897000Y-153845510D02*
X191536553Y-154025733D01*
X191484368Y-153947632D01*
X191262138Y-153799143D01*
X191000000Y-153747000D01*
X186504284Y-153747000D01*
X186504284Y-147461205D01*
X186504284Y-141451205D01*
X186255894Y-140850057D01*
X185796363Y-140389722D01*
X185195648Y-140140284D01*
X184545205Y-140139716D01*
X183944057Y-140388106D01*
X183498736Y-140832648D01*
X183499284Y-140206205D01*
X183250894Y-139605057D01*
X182791363Y-139144722D01*
X182190648Y-138895284D01*
X181540205Y-138894716D01*
X180939057Y-139143106D01*
X180478722Y-139602637D01*
X180229284Y-140203352D01*
X180228734Y-140832867D01*
X179786363Y-140389722D01*
X179185648Y-140140284D01*
X178535205Y-140139716D01*
X177934057Y-140388106D01*
X177473722Y-140847637D01*
X177224284Y-141448352D01*
X177223716Y-142098795D01*
X177472106Y-142699943D01*
X177931637Y-143160278D01*
X178532352Y-143409716D01*
X179182795Y-143410284D01*
X179783943Y-143161894D01*
X180244278Y-142702363D01*
X180493716Y-142101648D01*
X180494265Y-141472132D01*
X180936637Y-141915278D01*
X181537352Y-142164716D01*
X182187795Y-142165284D01*
X182788943Y-141916894D01*
X183234263Y-141472351D01*
X183233716Y-142098795D01*
X183482106Y-142699943D01*
X183941637Y-143160278D01*
X184542352Y-143409716D01*
X185192795Y-143410284D01*
X185793943Y-143161894D01*
X186254278Y-142702363D01*
X186503716Y-142101648D01*
X186504284Y-141451205D01*
X186504284Y-147461205D01*
X186255894Y-146860057D01*
X185796363Y-146399722D01*
X185195648Y-146150284D01*
X184545205Y-146149716D01*
X183944057Y-146398106D01*
X183483722Y-146857637D01*
X183234284Y-147458352D01*
X183233734Y-148087867D01*
X182791363Y-147644722D01*
X182190648Y-147395284D01*
X181540205Y-147394716D01*
X180939057Y-147643106D01*
X180493736Y-148087648D01*
X180494284Y-147461205D01*
X180245894Y-146860057D01*
X179786363Y-146399722D01*
X179185648Y-146150284D01*
X178535205Y-146149716D01*
X177934057Y-146398106D01*
X177473722Y-146857637D01*
X177224284Y-147458352D01*
X177223716Y-148108795D01*
X177472106Y-148709943D01*
X177931637Y-149170278D01*
X178532352Y-149419716D01*
X179182795Y-149420284D01*
X179783943Y-149171894D01*
X180229263Y-148727351D01*
X180228716Y-149353795D01*
X180477106Y-149954943D01*
X180936637Y-150415278D01*
X181537352Y-150664716D01*
X182187795Y-150665284D01*
X182788943Y-150416894D01*
X183249278Y-149957363D01*
X183498716Y-149356648D01*
X183499265Y-148727132D01*
X183941637Y-149170278D01*
X184542352Y-149419716D01*
X185192795Y-149420284D01*
X185793943Y-149171894D01*
X186254278Y-148712363D01*
X186503716Y-148111648D01*
X186504284Y-147461205D01*
X186504284Y-153747000D01*
X171331000Y-153747000D01*
X171331000Y-149587909D01*
X171331000Y-148883750D01*
X171172250Y-148725000D01*
X169807000Y-148725000D01*
X169807000Y-149937850D01*
X169843450Y-149974300D01*
X169799000Y-150018750D01*
X169799000Y-150812500D01*
X170846750Y-150812500D01*
X171005500Y-150653750D01*
X171005500Y-150368691D01*
X170908827Y-150135302D01*
X170856120Y-150082595D01*
X171055699Y-149999927D01*
X171234327Y-149821298D01*
X171331000Y-149587909D01*
X171331000Y-153747000D01*
X170810525Y-153747000D01*
X170908827Y-153648699D01*
X171005500Y-153415310D01*
X171005500Y-153162691D01*
X171005500Y-152273691D01*
X170908827Y-152040302D01*
X170760525Y-151892000D01*
X170908827Y-151743698D01*
X171005500Y-151510309D01*
X171005500Y-151225250D01*
X170846750Y-151066500D01*
X169799000Y-151066500D01*
X169799000Y-151086500D01*
X169545000Y-151086500D01*
X169545000Y-151066500D01*
X169525000Y-151066500D01*
X169525000Y-150812500D01*
X169545000Y-150812500D01*
X169545000Y-150018750D01*
X169508550Y-149982300D01*
X169553000Y-149937850D01*
X169553000Y-148725000D01*
X169533000Y-148725000D01*
X169533000Y-148471000D01*
X169553000Y-148471000D01*
X169553000Y-148451000D01*
X169807000Y-148451000D01*
X169807000Y-148471000D01*
X171172250Y-148471000D01*
X171331000Y-148312250D01*
X171331000Y-147608091D01*
X171234327Y-147374702D01*
X171055699Y-147196073D01*
X170902220Y-147132499D01*
X170924415Y-147117670D01*
X171249271Y-146631489D01*
X171363345Y-146058000D01*
X171249271Y-145484511D01*
X170924415Y-144998330D01*
X170609634Y-144788000D01*
X170924415Y-144577670D01*
X171249271Y-144091489D01*
X171363345Y-143518000D01*
X171249271Y-142944511D01*
X170924415Y-142458330D01*
X170609634Y-142248000D01*
X170924415Y-142037670D01*
X171249271Y-141551489D01*
X171363345Y-140978000D01*
X171249271Y-140404511D01*
X170924415Y-139918330D01*
X170559067Y-139674212D01*
X170730199Y-139603327D01*
X170908827Y-139424698D01*
X171005500Y-139191309D01*
X171005500Y-138906250D01*
X170846750Y-138747500D01*
X169799000Y-138747500D01*
X169799000Y-138767500D01*
X169545000Y-138767500D01*
X169545000Y-138747500D01*
X168497250Y-138747500D01*
X168338500Y-138906250D01*
X168338500Y-139191309D01*
X168435173Y-139424698D01*
X168613801Y-139603327D01*
X168794809Y-139678303D01*
X168435585Y-139918330D01*
X168110729Y-140404511D01*
X167996655Y-140978000D01*
X168110729Y-141551489D01*
X168435585Y-142037670D01*
X168750365Y-142248000D01*
X168435585Y-142458330D01*
X168110729Y-142944511D01*
X167996655Y-143518000D01*
X168110729Y-144091489D01*
X168435585Y-144577670D01*
X168750365Y-144788000D01*
X168435585Y-144998330D01*
X168110729Y-145484511D01*
X168039434Y-145842935D01*
X167101185Y-146781185D01*
X166936004Y-147028395D01*
X166878000Y-147320000D01*
X166878000Y-142093539D01*
X167245827Y-141726353D01*
X167449268Y-141236413D01*
X167449731Y-140705914D01*
X167247146Y-140215620D01*
X166872353Y-139840173D01*
X166382413Y-139636732D01*
X165851914Y-139636269D01*
X165361620Y-139838854D01*
X164986173Y-140213647D01*
X164782732Y-140703587D01*
X164782269Y-141234086D01*
X164984854Y-141724380D01*
X165354000Y-142094170D01*
X165354000Y-147466460D01*
X165100000Y-147720018D01*
X165100000Y-147688141D01*
X165163313Y-147535668D01*
X165163687Y-147106216D01*
X164999689Y-146709311D01*
X164696286Y-146405378D01*
X164299668Y-146240687D01*
X163870216Y-146240313D01*
X163473311Y-146404311D01*
X163322000Y-146555358D01*
X163322000Y-144780000D01*
X163263996Y-144488395D01*
X163131485Y-144290079D01*
X163131485Y-144290078D01*
X163131687Y-144058216D01*
X162967689Y-143661311D01*
X162664286Y-143357378D01*
X162267668Y-143192687D01*
X161838216Y-143192313D01*
X161798000Y-143208929D01*
X161798000Y-142093539D01*
X161850446Y-142041184D01*
X161947714Y-142138622D01*
X162344332Y-142303313D01*
X162773784Y-142303687D01*
X163170689Y-142139689D01*
X163474622Y-141836286D01*
X163639313Y-141439668D01*
X163639687Y-141010216D01*
X163475689Y-140613311D01*
X163217220Y-140354391D01*
X163217219Y-140354390D01*
X163098815Y-140177185D01*
X162082815Y-139161185D01*
X161835605Y-138996004D01*
X161544000Y-138938000D01*
X160067070Y-138938000D01*
X159948515Y-138651076D01*
X160317670Y-138404415D01*
X160528000Y-138089634D01*
X160738330Y-138404415D01*
X161224511Y-138729271D01*
X161798000Y-138843345D01*
X162371489Y-138729271D01*
X162857670Y-138404415D01*
X163068000Y-138089634D01*
X163278330Y-138404415D01*
X163764511Y-138729271D01*
X164338000Y-138843345D01*
X164911489Y-138729271D01*
X165397670Y-138404415D01*
X165608000Y-138089634D01*
X165818330Y-138404415D01*
X166304511Y-138729271D01*
X166878000Y-138843345D01*
X167451489Y-138729271D01*
X167937670Y-138404415D01*
X168262526Y-137918234D01*
X168372092Y-137367407D01*
X168435173Y-137519698D01*
X168583474Y-137668000D01*
X168435173Y-137816302D01*
X168338500Y-138049691D01*
X168338500Y-138334750D01*
X168497250Y-138493500D01*
X169545000Y-138493500D01*
X169545000Y-138473500D01*
X169799000Y-138473500D01*
X169799000Y-138493500D01*
X170846750Y-138493500D01*
X171005500Y-138334750D01*
X171005500Y-138049691D01*
X170908827Y-137816302D01*
X170760525Y-137667999D01*
X170908827Y-137519699D01*
X170926306Y-137477500D01*
X171683167Y-137477500D01*
X171804311Y-137770689D01*
X172107714Y-138074622D01*
X172504332Y-138239313D01*
X172933784Y-138239687D01*
X173330689Y-138075689D01*
X173484646Y-137922000D01*
X183580370Y-137922000D01*
X186880500Y-141222130D01*
X186880313Y-141437784D01*
X187044311Y-141834689D01*
X187347714Y-142138622D01*
X187744332Y-142303313D01*
X188173784Y-142303687D01*
X188570689Y-142139689D01*
X188874622Y-141836286D01*
X189039313Y-141439668D01*
X189039687Y-141010216D01*
X188875689Y-140613311D01*
X188572286Y-140309378D01*
X188175668Y-140144687D01*
X187958127Y-140144497D01*
X184434815Y-136621185D01*
X184187605Y-136456004D01*
X183896000Y-136398000D01*
X173484641Y-136398000D01*
X173332286Y-136245378D01*
X172935668Y-136080687D01*
X172670298Y-136080455D01*
X172670297Y-136080455D01*
X172567105Y-136011504D01*
X172275500Y-135953500D01*
X170926306Y-135953500D01*
X170908827Y-135911302D01*
X170810525Y-135813000D01*
X191000000Y-135813000D01*
X191262138Y-135760857D01*
X191484368Y-135612368D01*
X191559770Y-135499520D01*
X191897000Y-136173981D01*
X191897000Y-153845510D01*
M02*
