G04 #@! TF.FileFunction,Soldermask,Bot*
%FSLAX46Y46*%
G04 Gerber Fmt 4.6, Leading zero omitted, Abs format (unit mm)*
G04 Created by KiCad (PCBNEW (2014-10-31 BZR 5247)-product) date Sonntag, 14. Dezember 2014 16:47:01*
%MOMM*%
G01*
G04 APERTURE LIST*
%ADD10C,0.100000*%
%ADD11R,2.032000X2.032000*%
%ADD12O,2.032000X2.032000*%
%ADD13R,2.032000X1.727200*%
%ADD14O,2.032000X1.727200*%
%ADD15R,1.727200X2.032000*%
%ADD16O,1.727200X2.032000*%
%ADD17C,2.000000*%
%ADD18C,1.397000*%
%ADD19R,1.397000X0.889000*%
G04 APERTURE END LIST*
D10*
D11*
X138684000Y-143002000D03*
D12*
X138684000Y-145542000D03*
D13*
X135636000Y-151130000D03*
D14*
X135636000Y-148590000D03*
X135636000Y-146050000D03*
X135636000Y-143510000D03*
D13*
X132080000Y-151130000D03*
D14*
X132080000Y-148590000D03*
X132080000Y-146050000D03*
X132080000Y-143510000D03*
D15*
X138938000Y-152400000D03*
D16*
X141478000Y-152400000D03*
X144018000Y-152400000D03*
X146558000Y-152400000D03*
X149098000Y-152400000D03*
X151638000Y-152400000D03*
X154178000Y-152400000D03*
X156718000Y-152400000D03*
X159258000Y-152400000D03*
X161798000Y-152400000D03*
X164338000Y-152400000D03*
X166878000Y-152400000D03*
D15*
X138938000Y-137160000D03*
D16*
X141478000Y-137160000D03*
X144018000Y-137160000D03*
X146558000Y-137160000D03*
X149098000Y-137160000D03*
X151638000Y-137160000D03*
X154178000Y-137160000D03*
X156718000Y-137160000D03*
X159258000Y-137160000D03*
X161798000Y-137160000D03*
X164338000Y-137160000D03*
X166878000Y-137160000D03*
D17*
X181864000Y-149030000D03*
X181864000Y-140530000D03*
X184869000Y-147785000D03*
X178859000Y-147785000D03*
X178859000Y-141775000D03*
X184869000Y-141775000D03*
D18*
X161036000Y-140970000D03*
X166116000Y-140970000D03*
X161036000Y-148590000D03*
X166116000Y-148590000D03*
D13*
X169680000Y-148598000D03*
D14*
X169680000Y-146058000D03*
X169680000Y-143518000D03*
X169680000Y-140978000D03*
D19*
X169672000Y-138620500D03*
X169672000Y-136715500D03*
X169672000Y-150939500D03*
X169672000Y-152844500D03*
M02*
